/* XPM */
static char *d6b247211bc749a5e4fe516eff93441cNWtIdDQ3XN00c3zH[] = {
/* columns rows colors chars-per-pixel */
"64 64 5 1 ",
"  c black",
". c #9E5C28",
"X c #FFCB00",
"o c yellow",
"O c #FFFF6F",
/* pixels */
"................................................................",
"................................................................",
"................................................................",
"................................................................",
"................................................................",
"................................................................",
"................................................................",
"................................................................",
"................................................................",
"................................................................",
"................................................................",
"................................................................",
"................................................................",
"................................................................",
"................................................................",
"................................................................",
"........................OOOOOOOOOOOOOOOO........................",
"........................OOOOOOOOOOOOOOOO........................",
"........................OOOOOOOOOOOOOOOO........................",
"........................OOOOOOOOOOOOOOOO........................",
"....................ooooooooooooooooooooOOOO....................",
"....................ooooooooooooooooooooOOOO....................",
"....................ooooooooooooooooooooOOOO....................",
"....................ooooooooooooooooooooOOOO....................",
"................oooooooo                ooooOOOO................",
"................oooooooo                ooooOOOO................",
"................oooooooo                ooooOOOO................",
"................oooooooo                ooooOOOO................",
"................oooooooo    oooooooooooooooooooo................",
"................oooooooo    oooooooooooooooooooo................",
"................oooooooo    oooooooooooooooooooo................",
"................oooooooo    oooooooooooooooooooo................",
"................oooooooo    oooooooooooooooooooo................",
"................oooooooo    oooooooooooooooooooo................",
"................oooooooo    oooooooooooooooooooo................",
"................oooooooo    oooooooooooooooooooo................",
"................XXXXoooo                oooooooo................",
"................XXXXoooo                oooooooo................",
"................XXXXoooo                oooooooo................",
"................XXXXoooo                oooooooo................",
"....................XXXXoooooooooooooooooooo....................",
"....................XXXXoooooooooooooooooooo....................",
"....................XXXXoooooooooooooooooooo....................",
"....................XXXXoooooooooooooooooooo....................",
"........................XXXXXXXXXXXXXXXX........................",
"........................XXXXXXXXXXXXXXXX........................",
"........................XXXXXXXXXXXXXXXX........................",
"........................XXXXXXXXXXXXXXXX........................",
"................................................................",
"................................................................",
"................................................................",
"................................................................",
"................................................................",
"................................................................",
"................................................................",
"................................................................",
"................................................................",
"................................................................",
"................................................................",
"................................................................",
"................................................................",
"................................................................",
"................................................................",
"................................................................"
};
