/* XPM */
static char *result[] = {
/* columns rows colors chars-per-pixel */
"64 64 3 1 ",
"  c black",
". c gray44",
"X c #9E5C28",
/* pixels */
"XXXXXXXXXXXXXXXXXXXXXXXXXXXXXXXXXXXXXXXXXXXXXXXXXXXXXXXXXXXXXXXX",
"XXXXXXXXXXXXXXXXXXXXXXXXXXXXXXXXXXXXXXXXXXXXXXXXXXXXXXXXXXXXXXXX",
"XXXXXXXXXXXXXXXXXXXXXXXXXXXXXXXXXXXXXXXXXXXXXXXXXXXXXXXXXXXXXXXX",
"XXXXXXXXXXXXXXXXXXXXXXXXXXXXXXXXXXXXXXXXXXXXXXXXXXXXXXXXXXXXXXXX",
"XXXXXXXXXXXXXXXX                                XXXXXXXXXXXXXXXX",
"XXXXXXXXXXXXXXXX                                XXXXXXXXXXXXXXXX",
"XXXXXXXXXXXXXXXX                                XXXXXXXXXXXXXXXX",
"XXXXXXXXXXXXXXXX                                XXXXXXXXXXXXXXXX",
"XXXXXXXX                                                XXXXXXXX",
"XXXXXXXX                                                XXXXXXXX",
"XXXXXXXX                                                XXXXXXXX",
"XXXXXXXX                                                XXXXXXXX",
"XXXXXXXX        ............        ............        XXXXXXXX",
"XXXXXXXX        ............        ............        XXXXXXXX",
"XXXXXXXX        ............        ............        XXXXXXXX",
"XXXXXXXX        ............        ............        XXXXXXXX",
"XXXX        ................        ................        XXXX",
"XXXX        ................        ................        XXXX",
"XXXX        ................        ................        XXXX",
"XXXX        ................        ................        XXXX",
"XXXX        ................        ................        XXXX",
"XXXX        ................        ................        XXXX",
"XXXX        ................        ................        XXXX",
"XXXX        ................        ................        XXXX",
"XXXX        ............                ............        XXXX",
"XXXX        ............                ............        XXXX",
"XXXX        ............                ............        XXXX",
"XXXX        ............                ............        XXXX",
"XXXX                                                        XXXX",
"XXXX                                                        XXXX",
"XXXX                                                        XXXX",
"XXXX                                                        XXXX",
"XXXX                                                        XXXX",
"XXXX                                                        XXXX",
"XXXX                                                        XXXX",
"XXXX                                                        XXXX",
"XXXX        ............                ............        XXXX",
"XXXX        ............                ............        XXXX",
"XXXX        ............                ............        XXXX",
"XXXX        ............                ............        XXXX",
"XXXX        ................        ................        XXXX",
"XXXX        ................        ................        XXXX",
"XXXX        ................        ................        XXXX",
"XXXX        ................        ................        XXXX",
"XXXX        ................        ................        XXXX",
"XXXX        ................        ................        XXXX",
"XXXX        ................        ................        XXXX",
"XXXX        ................        ................        XXXX",
"XXXXXXXX        ............        ............        XXXXXXXX",
"XXXXXXXX        ............        ............        XXXXXXXX",
"XXXXXXXX        ............        ............        XXXXXXXX",
"XXXXXXXX        ............        ............        XXXXXXXX",
"XXXXXXXX                                                XXXXXXXX",
"XXXXXXXX                                                XXXXXXXX",
"XXXXXXXX                                                XXXXXXXX",
"XXXXXXXX                                                XXXXXXXX",
"XXXXXXXXXXXXXXXX                                XXXXXXXXXXXXXXXX",
"XXXXXXXXXXXXXXXX                                XXXXXXXXXXXXXXXX",
"XXXXXXXXXXXXXXXX                                XXXXXXXXXXXXXXXX",
"XXXXXXXXXXXXXXXX                                XXXXXXXXXXXXXXXX",
"XXXXXXXXXXXXXXXXXXXXXXXXXXXXXXXXXXXXXXXXXXXXXXXXXXXXXXXXXXXXXXXX",
"XXXXXXXXXXXXXXXXXXXXXXXXXXXXXXXXXXXXXXXXXXXXXXXXXXXXXXXXXXXXXXXX",
"XXXXXXXXXXXXXXXXXXXXXXXXXXXXXXXXXXXXXXXXXXXXXXXXXXXXXXXXXXXXXXXX",
"XXXXXXXXXXXXXXXXXXXXXXXXXXXXXXXXXXXXXXXXXXXXXXXXXXXXXXXXXXXXXXXX"
};
