/* XPM */
static char *result[] = {
/* columns rows colors chars-per-pixel */
"64 64 4 1 ",
"  c black",
". c #9E5C28",
"X c #C65CFF",
"o c #E7BAFF",
/* pixels */
"................................................................",
"................................................................",
"................................................................",
"................................................................",
"................                                ................",
"................                                ................",
"................                                ................",
"................                                ................",
"........                                                ........",
"........                                                ........",
"........                                                ........",
"........                                                ........",
"........        XXXXXXXXXXXXXXXXXXXXXXXXXXXXXXXX        ........",
"........        XXXXXXXXXXXXXXXXXXXXXXXXXXXXXXXX        ........",
"........        XXXXXXXXXXXXXXXXXXXXXXXXXXXXXXXX        ........",
"........        XXXXXXXXXXXXXXXXXXXXXXXXXXXXXXXX        ........",
"....        XXXXXXXXXXXXooooooooooooooooooooXXXXXXXX        ....",
"....        XXXXXXXXXXXXooooooooooooooooooooXXXXXXXX        ....",
"....        XXXXXXXXXXXXooooooooooooooooooooXXXXXXXX        ....",
"....        XXXXXXXXXXXXooooooooooooooooooooXXXXXXXX        ....",
"....        XXXXXXXXooooXXXXXXXXXXXXXXXXXXXXXXXXXXXX        ....",
"....        XXXXXXXXooooXXXXXXXXXXXXXXXXXXXXXXXXXXXX        ....",
"....        XXXXXXXXooooXXXXXXXXXXXXXXXXXXXXXXXXXXXX        ....",
"....        XXXXXXXXooooXXXXXXXXXXXXXXXXXXXXXXXXXXXX        ....",
"....        XXXXooooXXXXXXXXooooooooooooooooXXXXXXXX        ....",
"....        XXXXooooXXXXXXXXooooooooooooooooXXXXXXXX        ....",
"....        XXXXooooXXXXXXXXooooooooooooooooXXXXXXXX        ....",
"....        XXXXooooXXXXXXXXooooooooooooooooXXXXXXXX        ....",
"....        XXXXooooXXXXooooXXXXXXXXXXXXXXXXooooXXXX        ....",
"....        XXXXooooXXXXooooXXXXXXXXXXXXXXXXooooXXXX        ....",
"....        XXXXooooXXXXooooXXXXXXXXXXXXXXXXooooXXXX        ....",
"....        XXXXooooXXXXooooXXXXXXXXXXXXXXXXooooXXXX        ....",
"....        XXXXooooXXXXooooXXXXXXXXooooXXXXooooXXXX        ....",
"....        XXXXooooXXXXooooXXXXXXXXooooXXXXooooXXXX        ....",
"....        XXXXooooXXXXooooXXXXXXXXooooXXXXooooXXXX        ....",
"....        XXXXooooXXXXooooXXXXXXXXooooXXXXooooXXXX        ....",
"....        XXXXooooXXXXXXXXooooooooXXXXXXXXooooXXXX        ....",
"....        XXXXooooXXXXXXXXooooooooXXXXXXXXooooXXXX        ....",
"....        XXXXooooXXXXXXXXooooooooXXXXXXXXooooXXXX        ....",
"....        XXXXooooXXXXXXXXooooooooXXXXXXXXooooXXXX        ....",
"....        XXXXXXXXooooXXXXXXXXXXXXXXXXooooXXXXXXXX        ....",
"....        XXXXXXXXooooXXXXXXXXXXXXXXXXooooXXXXXXXX        ....",
"....        XXXXXXXXooooXXXXXXXXXXXXXXXXooooXXXXXXXX        ....",
"....        XXXXXXXXooooXXXXXXXXXXXXXXXXooooXXXXXXXX        ....",
"....        XXXXXXXXXXXXooooooooooooooooXXXXXXXXXXXX        ....",
"....        XXXXXXXXXXXXooooooooooooooooXXXXXXXXXXXX        ....",
"....        XXXXXXXXXXXXooooooooooooooooXXXXXXXXXXXX        ....",
"....        XXXXXXXXXXXXooooooooooooooooXXXXXXXXXXXX        ....",
"........        XXXXXXXXXXXXXXXXXXXXXXXXXXXXXXXX        ........",
"........        XXXXXXXXXXXXXXXXXXXXXXXXXXXXXXXX        ........",
"........        XXXXXXXXXXXXXXXXXXXXXXXXXXXXXXXX        ........",
"........        XXXXXXXXXXXXXXXXXXXXXXXXXXXXXXXX        ........",
"........                                                ........",
"........                                                ........",
"........                                                ........",
"........                                                ........",
"................                                ................",
"................                                ................",
"................                                ................",
"................                                ................",
"................................................................",
"................................................................",
"................................................................",
"................................................................"
};
