/* XPM */
static char *_7c001245509454cca01084a6fa75899JlDdeUejPBDLmdoA[] = {
/* columns rows colors chars-per-pixel */
"64 64 5 1 ",
"  c black",
". c #AD0000",
"X c red",
"o c #9E5C28",
"O c #FF6E6E",
/* pixels */
"oooooooooooooooooooooooooooooooooooooooooooooooooooooooooooooooo",
"oooooooooooooooooooooooooooooooooooooooooooooooooooooooooooooooo",
"oooooooooooooooooooooooooooooooooooooooooooooooooooooooooooooooo",
"oooooooooooooooooooooooooooooooooooooooooooooooooooooooooooooooo",
"oooooooooooooooooooooooooooooooooooooooooooooooooooooooooooooooo",
"oooooooooooooooooooooooooooooooooooooooooooooooooooooooooooooooo",
"oooooooooooooooooooooooooooooooooooooooooooooooooooooooooooooooo",
"oooooooooooooooooooooooooooooooooooooooooooooooooooooooooooooooo",
"ooooooooooooooooooooooooOOOOOOOOOOOOOOOOoooooooooooooooooooooooo",
"ooooooooooooooooooooooooOOOOOOOOOOOOOOOOoooooooooooooooooooooooo",
"ooooooooooooooooooooooooOOOOOOOOOOOOOOOOoooooooooooooooooooooooo",
"ooooooooooooooooooooooooOOOOOOOOOOOOOOOOoooooooooooooooooooooooo",
"ooooooooooooooooXXXXXXXXXXXXXXXXXXXXXXXXOOOOOOOOoooooooooooooooo",
"ooooooooooooooooXXXXXXXXXXXXXXXXXXXXXXXXOOOOOOOOoooooooooooooooo",
"ooooooooooooooooXXXXXXXXXXXXXXXXXXXXXXXXOOOOOOOOoooooooooooooooo",
"ooooooooooooooooXXXXXXXXXXXXXXXXXXXXXXXXOOOOOOOOoooooooooooooooo",
"ooooooooooooXXXXXXXX        XXXXXXXX        XXXXOOOOoooooooooooo",
"ooooooooooooXXXXXXXX        XXXXXXXX        XXXXOOOOoooooooooooo",
"ooooooooooooXXXXXXXX        XXXXXXXX        XXXXOOOOoooooooooooo",
"ooooooooooooXXXXXXXX        XXXXXXXX        XXXXOOOOoooooooooooo",
"ooooooooooooXXXXXXXXXXXXXXXXXXXXXXXXXXXXXXXXXXXXOOOOoooooooooooo",
"ooooooooooooXXXXXXXXXXXXXXXXXXXXXXXXXXXXXXXXXXXXOOOOoooooooooooo",
"ooooooooooooXXXXXXXXXXXXXXXXXXXXXXXXXXXXXXXXXXXXOOOOoooooooooooo",
"ooooooooooooXXXXXXXXXXXXXXXXXXXXXXXXXXXXXXXXXXXXOOOOoooooooooooo",
"ooooooooXXXXXXXXXXXX        XXXXXXXX        XXXXXXXXOOOOoooooooo",
"ooooooooXXXXXXXXXXXX        XXXXXXXX        XXXXXXXXOOOOoooooooo",
"ooooooooXXXXXXXXXXXX        XXXXXXXX        XXXXXXXXOOOOoooooooo",
"ooooooooXXXXXXXXXXXX        XXXXXXXX        XXXXXXXXOOOOoooooooo",
"ooooooooXXXXXXXXXXXXXXXX    XXXXXXXXXXXX    XXXXXXXXXXXXoooooooo",
"ooooooooXXXXXXXXXXXXXXXX    XXXXXXXXXXXX    XXXXXXXXXXXXoooooooo",
"ooooooooXXXXXXXXXXXXXXXX    XXXXXXXXXXXX    XXXXXXXXXXXXoooooooo",
"ooooooooXXXXXXXXXXXXXXXX    XXXXXXXXXXXX    XXXXXXXXXXXXoooooooo",
"ooooooooXXXXXXXXXXXXXXXXXXXXXXXXXXXXXXXXXXXXXXXXXXXXXXXXoooooooo",
"ooooooooXXXXXXXXXXXXXXXXXXXXXXXXXXXXXXXXXXXXXXXXXXXXXXXXoooooooo",
"ooooooooXXXXXXXXXXXXXXXXXXXXXXXXXXXXXXXXXXXXXXXXXXXXXXXXoooooooo",
"ooooooooXXXXXXXXXXXXXXXXXXXXXXXXXXXXXXXXXXXXXXXXXXXXXXXXoooooooo",
"oooooooo....XXXXXXXX    XXXXXXXXXXXXXXXX    XXXXXXXXXXXXoooooooo",
"oooooooo....XXXXXXXX    XXXXXXXXXXXXXXXX    XXXXXXXXXXXXoooooooo",
"oooooooo....XXXXXXXX    XXXXXXXXXXXXXXXX    XXXXXXXXXXXXoooooooo",
"oooooooo....XXXXXXXX    XXXXXXXXXXXXXXXX    XXXXXXXXXXXXoooooooo",
"oooooooooooo....XXXXXXXX                XXXXXXXXXXXXoooooooooooo",
"oooooooooooo....XXXXXXXX                XXXXXXXXXXXXoooooooooooo",
"oooooooooooo....XXXXXXXX                XXXXXXXXXXXXoooooooooooo",
"oooooooooooo....XXXXXXXX                XXXXXXXXXXXXoooooooooooo",
"oooooooooooo....XXXXXXXXXXXXXXXXXXXXXXXXXXXXXXXXXXXXoooooooooooo",
"oooooooooooo....XXXXXXXXXXXXXXXXXXXXXXXXXXXXXXXXXXXXoooooooooooo",
"oooooooooooo....XXXXXXXXXXXXXXXXXXXXXXXXXXXXXXXXXXXXoooooooooooo",
"oooooooooooo....XXXXXXXXXXXXXXXXXXXXXXXXXXXXXXXXXXXXoooooooooooo",
"oooooooooooooooo........XXXXXXXXXXXXXXXXXXXXXXXXoooooooooooooooo",
"oooooooooooooooo........XXXXXXXXXXXXXXXXXXXXXXXXoooooooooooooooo",
"oooooooooooooooo........XXXXXXXXXXXXXXXXXXXXXXXXoooooooooooooooo",
"oooooooooooooooo........XXXXXXXXXXXXXXXXXXXXXXXXoooooooooooooooo",
"oooooooooooooooooooooooo................oooooooooooooooooooooooo",
"oooooooooooooooooooooooo................oooooooooooooooooooooooo",
"oooooooooooooooooooooooo................oooooooooooooooooooooooo",
"oooooooooooooooooooooooo................oooooooooooooooooooooooo",
"oooooooooooooooooooooooooooooooooooooooooooooooooooooooooooooooo",
"oooooooooooooooooooooooooooooooooooooooooooooooooooooooooooooooo",
"oooooooooooooooooooooooooooooooooooooooooooooooooooooooooooooooo",
"oooooooooooooooooooooooooooooooooooooooooooooooooooooooooooooooo",
"oooooooooooooooooooooooooooooooooooooooooooooooooooooooooooooooo",
"oooooooooooooooooooooooooooooooooooooooooooooooooooooooooooooooo",
"oooooooooooooooooooooooooooooooooooooooooooooooooooooooooooooooo",
"oooooooooooooooooooooooooooooooooooooooooooooooooooooooooooooooo"
};
