/* XPM */
static char *fb0d25761d65454facf43ec26b4ae7d6Gtn02NobfcRrUxMS[] = {
/* columns rows colors chars-per-pixel */
"64 64 2 1 ",
"  c #FFCB00",
". c #FFFF6F",
/* pixels */
"                                                                ",
"                                                                ",
"                                                                ",
"                                                                ",
"            ........................................            ",
"            ........................................            ",
"            ........................................            ",
"            ........................................            ",
"                ................................                ",
"                ................................                ",
"                ................................                ",
"                ................................                ",
"    ....            ........................            ....    ",
"    ....            ........................            ....    ",
"    ....            ........................            ....    ",
"    ....            ........................            ....    ",
"    ........            ................            ........    ",
"    ........            ................            ........    ",
"    ........            ................            ........    ",
"    ........            ................            ........    ",
"    ............            ........            ............    ",
"    ............            ........            ............    ",
"    ............            ........            ............    ",
"    ............            ........            ............    ",
"    ................                        ................    ",
"    ................                        ................    ",
"    ................                        ................    ",
"    ................                        ................    ",
"    ....................                ....................    ",
"    ....................                ....................    ",
"    ....................                ....................    ",
"    ....................                ....................    ",
"    ....................                ....................    ",
"    ....................                ....................    ",
"    ....................                ....................    ",
"    ....................                ....................    ",
"    ................                        ................    ",
"    ................                        ................    ",
"    ................                        ................    ",
"    ................                        ................    ",
"    ............            ........            ............    ",
"    ............            ........            ............    ",
"    ............            ........            ............    ",
"    ............            ........            ............    ",
"    ........            ................            ........    ",
"    ........            ................            ........    ",
"    ........            ................            ........    ",
"    ........            ................            ........    ",
"    ....            ........................            ....    ",
"    ....            ........................            ....    ",
"    ....            ........................            ....    ",
"    ....            ........................            ....    ",
"                ................................                ",
"                ................................                ",
"                ................................                ",
"                ................................                ",
"            ........................................            ",
"            ........................................            ",
"            ........................................            ",
"            ........................................            ",
"                                                                ",
"                                                                ",
"                                                                ",
"                                                                "
};
